<svg xmlns="http://www.w3.org/2000/svg" width="1280" height="460" viewBox="0 0 1280 460" role="img" aria-labelledby="title desc">
<title id="title">UVR5 Next Studio</title><desc id="desc">Sesini ayır. Ritmini koru. Sahneni oluştur. Mor ses dalgalarıyla yerel müzik stüdyosu.</desc>
<defs><linearGradient id="bg" x2="1" y2="1"><stop stop-color="#23192f"/><stop offset="1" stop-color="#0c0b13"/></linearGradient><linearGradient id="wave"><stop stop-color="#7250a5"/><stop offset=".5" stop-color="#dfc9ff"/><stop offset="1" stop-color="#7951aa"/></linearGradient><pattern id="grid" width="40" height="40" patternUnits="userSpaceOnUse"><path d="M40 0H0V40" fill="none" stroke="#fff" stroke-opacity=".035"/></pattern></defs>
<rect width="1280" height="460" rx="28" fill="url(#bg)"/><rect width="1280" height="460" rx="28" fill="url(#grid)"/><rect x="1" y="1" width="1278" height="458" rx="28" fill="none" stroke="#594369"/>
<g font-family="Segoe UI, Arial, sans-serif"><rect x="64" y="50" width="230" height="30" rx="15" fill="#342740"/><circle cx="82" cy="65" r="4" fill="#c4a1f5"/><text x="97" y="70" fill="#dac9ed" font-size="11" letter-spacing="2">LOCAL MUSIC WORKSPACE</text><text x="60" y="180" fill="#faf7ff" font-size="82" font-weight="800" letter-spacing="-4">UVR5</text><text x="64" y="242" fill="#bf9ce9" font-size="48" font-weight="300">Next Studio</text><text x="65" y="298" fill="#ddd3e9" font-size="21">Sesini ayır. Ritmini koru. Sahneni oluştur.</text><path d="M65 336H600" stroke="#513b62"/><text x="65" y="372" fill="#ac9abb" font-size="12" letter-spacing="2">SEPARATION / KARAOKE / TRANSPOSE / VIDEO</text><text x="65" y="427" fill="#806e93" font-size="11" letter-spacing="2">WINDOWS · NEXT.JS · PYTHON · AI AUDIO</text></g>
<path d="M714 215v30 M732 196v68 M750 169v122 M768 192v76 M786 144v172 M804 123v214 M822 158v144 M840 184v92 M858 143v174 M876 98v264 M894 77v306 M912 113v234 M930 153v154 M948 180v100 M966 154v152 M984 123v214 M1002 150v160 M1020 175v110 M1038 155v150 M1056 127v206 M1074 98v264 M1092 135v190 M1110 176v108 M1128 199v62 M1146 214v32" fill="none" stroke="url(#wave)" stroke-width="8" stroke-linecap="round"/>
<text x="820" y="427" fill="#9c85b5" font-family="Segoe UI, Arial, sans-serif" font-size="11" letter-spacing="3">YOUR SOUND. YOUR STUDIO.</text></svg>
